<?xml version="1.0" encoding="utf-8"?>
<!-- Generator: Adobe Illustrator 25.0.1, SVG Export Plug-In . SVG Version: 6.00 Build 0)  -->
<svg version="1.1" id="Layer_1" xmlns="http://www.w3.org/2000/svg" xmlns:xlink="http://www.w3.org/1999/xlink" x="0px" y="0px"
	 viewBox="0 0 54.8 54.1" style="enable-background:new 0 0 54.8 54.1;" xml:space="preserve">
<style type="text/css">
	.st0{fill:#E0DCF9;}
	.st1{fill:#C3BEF5;}
	.st2{fill:#A6A0F1;}
	.st3{fill:#8982ED;}
	.st4{fill:#6C64E9;}
</style>
<path class="st0" d="M32.2,41.4c-19,11-28.8,5-29.5-18S11.5-5.1,31.2,6.9S51.2,30.4,32.2,41.4z"/>
<path class="st1" d="M37.2,40.4c-21.7,10.3-32.7,4.8-33-16.5S14.7-2.6,36.7,8.4S58.9,30.1,37.2,40.4z"/>
<path class="st2" d="M38.2,40.9c-22.3,10.7-33.7,5.3-34-16S15-1.8,37.7,8.9S60.5,30.2,38.2,40.9z"/>
<path class="st3" d="M36.2,41.4c-21.7,11-33,4.8-34-18.5S12-5.9,34.7,6.4S57.9,30.4,36.2,41.4z"/>
<path class="st4" d="M28.2,46.4c-20.3,14.3-29.7,8.7-28-17S12-3.4,30.7,7.9S48.5,32.1,28.2,46.4z"/>
</svg>
