<svg id="Layer_1" data-name="Layer 1" xmlns="http://www.w3.org/2000/svg" viewBox="0 0 196.6 160.6"><path d="M196.1,110.3C204.6,8.5,202.8,4.8,208.5,7.2c11.1,4.6-10.7,91-.5,130.5,2.8,11,6.7,13.9,1.1,17.9C200,162.1,197.3,120.4,196.1,110.3Z" transform="translate(-58.9 -6.7)" fill="#f78c1e"/><path d="M106.7,167.2c-6.2.5-6,1.6-22.6-41.5C76,104.8,60.6,57.2,58.9,39.6c-.2-2.6,3.8-4.8,6-1.1,3,5.3,7.9,44.7,39.4,120.5C105.3,161.3,105.7,163.8,106.7,167.2Z" transform="translate(-58.9 -6.7)" fill="#f78c1e"/><path d="M169.8,142c-6.7-13.5-12.2-95.4-12.8-114.2-.4-12.2,6.4-10.8,7.4-.8s1.8,51.5,8.9,109c.2,1.8-.5,3.7-.8,5.6Z" transform="translate(-58.9 -6.7)" fill="#f78c1e"/><path d="M137.9,145.3c-7.9-6.1-23.2-76.3-26.2-93.1S108,34,112.9,31.5c.6-.2,3.6,1.3,4.2,5.4C129.2,122.3,145.9,141.1,137.9,145.3Z" transform="translate(-58.9 -6.7)" fill="#f78c1e"/><path d="M242,131.1c-4.5-10.9,3.1-79.8,6.9-101.8,1.1-6.3,7.1-4.6,6.5.3C243.6,131.3,244.5,127.6,242,131.1Z" transform="translate(-58.9 -6.7)" fill="#f78c1e"/></svg>