<svg id="Layer_1" data-name="Layer 1" xmlns="http://www.w3.org/2000/svg" viewBox="0 0 329.6 183.5">
  <path class="goutte" fill ="violet" d="M140.1,183.5C281.5,51.7,355,90.6,321.6,133.8c-35.9,46.5-78.3,37.6-141.7,42.9-3.9.4-35.8,7.2-39.8,5.7Z"/>
  <path class="goutte" fill ="violet" d="M116.6,158.9c3.5-29.8,23.8-108,32.9-127.9,23-50,76-34,57.5,8.5-12.8,29.5-45.5,47.3-67.3,83.8"/>
  <path class="goutte" fill ="violet" d="M81.4,158.9C-17.6,120.2-16.8-7.9,33.3,21.8c8.5,5,20.7,8.5,41,107.4C74.8,131.3,77.6,145.3,81.4,158.9Z"/>
</svg>