<svg id="visual" viewBox="0 0 900 600" width="900" height="600" xmlns="http://www.w3.org/2000/svg" xmlns:xlink="http://www.w3.org/1999/xlink" version="1.1"><path d="M0 227L129 238L257 235L386 175L514 243L643 197L771 200L900 192L900 0L771 0L643 0L514 0L386 0L257 0L129 0L0 0Z" fill="#c0c445"></path><path d="M0 193L129 132L257 175L386 151L514 135L643 196L771 169L900 120L900 0L771 0L643 0L514 0L386 0L257 0L129 0L0 0Z" fill="#a9b837"></path><path d="M0 141L129 155L257 92L386 128L514 157L643 97L771 91L900 90L900 0L771 0L643 0L514 0L386 0L257 0L129 0L0 0Z" fill="#92ac29"></path><path d="M0 91L129 83L257 59L386 89L514 58L643 82L771 102L900 70L900 0L771 0L643 0L514 0L386 0L257 0L129 0L0 0Z" fill="#7aa01b"></path><path d="M0 59L129 33L257 64L386 53L514 38L643 34L771 67L900 72L900 0L771 0L643 0L514 0L386 0L257 0L129 0L0 0Z" fill="#62940b"></path></svg>