<svg id="visual" viewBox="0 0 900 600" width="900" height="600" xmlns="http://www.w3.org/2000/svg" xmlns:xlink="http://www.w3.org/1999/xlink" version="1.1"><rect x="0" y="0" width="900" height="600" fill="#ffffff"></rect><path d="M0 81L25 95C50 109 100 137 150 152C200 167 250 169 300 157.2C350 145.3 400 119.7 450 108.3C500 97 550 100 600 113.2C650 126.3 700 149.7 750 154.2C800 158.7 850 144.3 875 137.2L900 130L900 0L875 0C850 0 800 0 750 0C700 0 650 0 600 0C550 0 500 0 450 0C400 0 350 0 300 0C250 0 200 0 150 0C100 0 50 0 25 0L0 0Z" fill="#7E57C2" stroke-linecap="round" stroke-linejoin="miter"></path></svg>